<svg id="Layer_1" data-name="Layer 1" xmlns="http://www.w3.org/2000/svg" viewBox="0 0 1170.81 968.67"><path d="M793.87,1338.83" transform="translate(-338.68 -57.11)" style="fill:#00a99d;stroke:#000;stroke-miterlimit:10"/><rect x="619.83" y="467.8" width="76.3" height="483.85" rx="38.15" style="fill:#45a09f"/><rect x="673.83" y="456.26" width="440.22" height="511.87" rx="82.86" style="fill:#55c3c1"/><rect x="1115.23" y="264.89" width="239.87" height="354.52" rx="119.93" transform="translate(2131.64 827.2) rotate(-180)" style="fill:#f7a075"/><path d="M1371.49,514.46h-17.23V535c0,59.86-55.94,108.38-125,108.38h-.41v382.43h142.59c47.67,0,86.32-33.52,86.32-74.87V589.34C1457.81,548,1419.16,514.46,1371.49,514.46Z" transform="translate(-338.68 -57.11)" style="fill:#8bd0c2"/><circle cx="904.3" cy="604.57" r="7.63" style="fill:#231f20"/><circle cx="904.3" cy="644.22" r="7.63" style="fill:#231f20"/><circle cx="904.3" cy="687" r="7.63" style="fill:#231f20"/><circle cx="904.3" cy="723.52" r="7.63" style="fill:#231f20"/><rect y="420.07" width="76.3" height="518.67" rx="38.15" style="fill:#a6a8ab"/><rect x="478.17" y="420.07" width="76.3" height="518.67" rx="38.15" style="fill:#a6a8ab"/><rect x="51.65" y="382.89" width="440.22" height="565.83" rx="82.86" style="fill:#e6e7e8"/><rect x="491.29" y="228.11" width="239.87" height="354.52" rx="119.93" transform="translate(883.77 753.63) rotate(180)" style="fill:#f7a075"/><rect x="950.07" y="34.04" width="155" height="385.04" rx="77.5" style="fill:#061e33"/><rect x="707.13" y="47.35" width="155" height="461.74" rx="77.5" style="fill:#061e33"/><path d="M748.28,439.71H731.75V462.4A119.94,119.94,0,0,1,611.81,582.34h-.39v423.2H748.28a82.86,82.86,0,0,0,82.86-82.86V522.57A82.86,82.86,0,0,0,748.28,439.71Z" transform="translate(-338.68 -57.11)" style="fill:#fff"/><rect x="288.57" y="112.3" width="155" height="100.96" rx="50.48" style="fill:#061e33"/><rect x="447.86" y="130.67" width="326" height="432" rx="163" transform="translate(883.03 636.24) rotate(180)" style="fill:#fcc78a"/><circle cx="183.7" cy="242.94" r="24.86" style="fill:#fff"/><circle cx="183.7" cy="242.94" r="11.9" style="fill:#231f20"/><circle cx="357" cy="242.94" r="24.86" style="fill:#fff"/><circle cx="357" cy="242.94" r="11.9" style="fill:#231f20"/><rect x="592.24" y="283.15" width="34.22" height="171.78" rx="15.54" transform="translate(880.02 680.98) rotate(-180)" style="fill:#f9a763"/><rect x="590.43" y="372.02" width="36.62" height="85.19" rx="16.63" transform="translate(-144.56 966.25) rotate(-90)" style="fill:#f9a763"/><rect x="322.87" y="196.83" width="66.35" height="17.74" rx="8.87" style="fill:#061e33"/><rect x="146.57" y="198.13" width="66.35" height="16.24" rx="8.12" style="fill:#061e33"/><path d="M553.15,472a58,58,0,0,0,11.39,34.62,58.33,58.33,0,0,1,93.07,1.12A58.05,58.05,0,0,0,669.86,472a58.82,58.82,0,0,0-1.72-14.08H554.87A58.32,58.32,0,0,0,553.15,472Z" transform="translate(-338.68 -57.11)"/><path d="M610.64,484a58.23,58.23,0,0,0-46.1,22.61,58.33,58.33,0,0,0,93.07,1.12A58.27,58.27,0,0,0,610.64,484Z" transform="translate(-338.68 -57.11)" style="fill:#ed2531"/><rect x="122.41" y="7.83" width="280.77" height="130.7" rx="65.35" style="fill:#061e33"/><rect x="311.44" y="50.87" width="155" height="100.96" rx="50.48" style="fill:#061e33"/><rect x="79.04" y="55.17" width="155" height="100.96" rx="50.48" style="fill:#061e33"/><path d="M478.1,138.16l-6.53-1.36a1.67,1.67,0,0,1-1.3-2,70.61,70.61,0,0,1,68.49-54.31h0a1.66,1.66,0,0,1,1.67,1.66v6.67a1.67,1.67,0,0,1-1.67,1.67h0a60.54,60.54,0,0,0-58.7,46.4A1.68,1.68,0,0,1,478.1,138.16Z" transform="translate(-338.68 -57.11)" style="fill:#053755"/><circle cx="741.47" cy="284.82" r="55.17" style="fill:#fcc78a"/><circle cx="741.47" cy="284.82" r="38.15" style="fill:#f7a075"/><circle cx="1059.89" cy="284.82" r="55.17" style="fill:#fcc78a"/><circle cx="1059.89" cy="284.82" r="38.15" style="fill:#f7a075"/><rect x="916.65" y="104.48" width="155" height="100.96" rx="50.48" style="fill:#061e33"/><rect x="1075.94" y="122.85" width="326" height="482.48" rx="163" transform="translate(2139.2 671.07) rotate(180)" style="fill:#fcc78a"/><circle cx="811.79" cy="235.12" r="24.86" style="fill:#fff"/><circle cx="811.79" cy="235.12" r="11.9" style="fill:#231f20"/><circle cx="985.09" cy="235.12" r="24.86" style="fill:#fff"/><circle cx="985.09" cy="235.12" r="11.9" style="fill:#231f20"/><rect x="1221.5" y="277.67" width="34.22" height="171.78" rx="15.54" transform="translate(2138.54 670.02) rotate(-180)" style="fill:#f9a763"/><rect x="809.72" y="201.66" width="3.57" height="16.94" rx="1.78" style="fill:#d1ecf2"/><rect x="809.72" y="201.66" width="3.57" height="16.94" rx="1.78" style="fill:#061e33"/><rect x="1150.84" y="266.76" width="16.94" height="3.57" rx="1.78" transform="translate(273.51 1268.21) rotate(-75.67)" style="fill:#d1ecf2"/><rect x="1150.84" y="266.76" width="16.94" height="3.57" rx="1.78" transform="translate(273.51 1268.21) rotate(-75.67)" style="fill:#061e33"/><rect x="1139.14" y="259.55" width="3.57" height="16.94" rx="1.78" transform="translate(-369.52 233.61) rotate(-14.33)" style="fill:#d1ecf2"/><rect x="1139.14" y="259.55" width="3.57" height="16.94" rx="1.78" transform="translate(-369.52 233.61) rotate(-14.33)" style="fill:#061e33"/><path d="M1140.65,230.07a38.45,38.45,0,0,0-11,1.61l-35.89,67.64a65.08,65.08,0,0,0,13.84,32.88l51.68-97.39A39.4,39.4,0,0,0,1140.65,230.07Z" transform="translate(-338.68 -57.11)" style="fill:#e1f3fc"/><circle cx="811.9" cy="234.1" r="61.53" style="fill:none;stroke:#231f20;stroke-miterlimit:10;stroke-width:7px"/><rect x="981.43" y="201.8" width="3.57" height="16.94" rx="1.78" style="fill:#d1ecf2"/><rect x="981.43" y="201.8" width="3.57" height="16.94" rx="1.78" style="fill:#061e33"/><rect x="1322.56" y="266.9" width="16.94" height="3.57" rx="1.78" transform="translate(402.59 1434.69) rotate(-75.67)" style="fill:#d1ecf2"/><rect x="1322.56" y="266.9" width="16.94" height="3.57" rx="1.78" transform="translate(402.59 1434.69) rotate(-75.67)" style="fill:#061e33"/><rect x="1310.85" y="259.69" width="3.57" height="16.94" rx="1.78" transform="translate(-364.21 276.11) rotate(-14.33)" style="fill:#d1ecf2"/><rect x="1310.85" y="259.69" width="3.57" height="16.94" rx="1.78" transform="translate(-364.21 276.11) rotate(-14.33)" style="fill:#061e33"/><path d="M1314.49,232.71a38.8,38.8,0,0,0-11,1.61L1267.6,302a65.09,65.09,0,0,0,13.85,32.88l51.68-97.39A39.43,39.43,0,0,0,1314.49,232.71Z" transform="translate(-338.68 -57.11)" style="fill:#e1f3fc"/><circle cx="985.74" cy="236.74" r="61.53" style="fill:none;stroke:#231f20;stroke-miterlimit:10;stroke-width:7px"/><rect x="875" y="228.91" width="50.09" height="10.17" style="fill:#231f20"/><rect x="750.49" width="280.77" height="130.7" rx="65.35" style="fill:#061e33"/><rect x="939.52" y="43.04" width="155" height="100.96" rx="50.48" style="fill:#061e33"/><path d="M1106.18,130.33l-6.53-1.36a1.67,1.67,0,0,1-1.29-2,70.61,70.61,0,0,1,68.49-54.31h0a1.67,1.67,0,0,1,1.67,1.67V81a1.67,1.67,0,0,1-1.67,1.67h0a60.58,60.58,0,0,0-58.71,46.4A1.67,1.67,0,0,1,1106.18,130.33Z" transform="translate(-338.68 -57.11)" style="fill:#053755"/><line x1="1067.13" y1="229.3" x2="1014.16" y2="410.6" style="fill:none;stroke:#1b75bb;stroke-miterlimit:10;stroke-width:3px"/><line x1="1064.64" y1="340.61" x2="1023.67" y2="405.7" style="fill:none;stroke:#1b75bb;stroke-miterlimit:10;stroke-width:3px"/><line x1="733.74" y1="230.28" x2="784.22" y2="407.54" style="fill:none;stroke:#1b75bb;stroke-miterlimit:10;stroke-width:3px"/><line x1="734.91" y1="339.46" x2="774.83" y2="402.85" style="fill:none;stroke:#1b75bb;stroke-miterlimit:10;stroke-width:3px"/><rect x="1067.09" y="324.13" width="17.13" height="36.35" rx="8.56" style="fill:#e1c8e0"/><rect x="715.35" y="324.91" width="17.13" height="36.35" rx="8.56" style="fill:#e1c8e0"/><rect x="434.48" y="266.48" width="14.3" height="73.57" rx="7.15" style="fill:#929497"/><rect x="448.83" y="279.3" width="10.95" height="48.42" rx="5.48" style="fill:#6d6e70"/><rect x="433.3" y="323.59" width="14.3" height="73.57" rx="7.15" transform="translate(542.21 663.63) rotate(180)" style="fill:#929497"/><rect x="422.29" y="336.41" width="10.95" height="48.42" rx="5.48" transform="translate(516.85 664.14) rotate(180)" style="fill:#6d6e70"/><circle cx="282.13" cy="547.04" r="7.63" style="fill:#231f20"/><circle cx="282.13" cy="586.7" r="7.63" style="fill:#231f20"/><circle cx="282.13" cy="629.48" r="7.63" style="fill:#231f20"/><circle cx="282.13" cy="666" r="7.63" style="fill:#231f20"/><path d="M793,360.62a252.14,252.14,0,0,1-15.17,95.23C738.33,562.92,636.56,608,612.59,617.85" transform="translate(-338.68 -57.11)" style="fill:none;stroke:#404041;stroke-miterlimit:10;stroke-width:6px"/><path d="M420.21,363a233,233,0,0,0,16.28,94.5c42.36,106.26,151.56,151,177.28,160.77" transform="translate(-338.68 -57.11)" style="fill:none;stroke:#404041;stroke-miterlimit:10;stroke-width:6px"/><path d="M611.15,617c-16.52,6.77-35.25,14.8-42.94,32.26-4,9-4.22,19.42-1.62,28.85,1.24,4.47,3.53,8.56,7.45,11.19,3.48,2.33,7.83,3.11,12,3.19A64.56,64.56,0,0,0,599.06,691c4.41-.85,8.77-2,13.08-3.21,8.76-2.55,17.32-5.71,26-8.65,16.6-5.65,35-11.25,52.65-7.31a35.18,35.18,0,0,1,20.67,13A42.23,42.23,0,0,1,720,708c.41,8.43-2.08,16.76-8.12,22.68a21.9,21.9,0,0,1-9.64,5.56c-4.57,1.23-9.39,1.06-14.05.55-9.89-1.08-19.64-3.52-29.28-5.9-9.83-2.42-19.66-5-29.66-6.57-18.44-2.95-38.44-3-55.3,6.09-8,4.27-14.38,10.84-16.77,19.73a46.38,46.38,0,0,0-1.32,13.74,85.79,85.79,0,0,0,1.63,14.21c1.77,8.72,5.64,17.41,12.52,23.29a28.43,28.43,0,0,0,12,6.17,40.09,40.09,0,0,0,14.24.45,116.11,116.11,0,0,0,13.92-2.87c3.73-1,2.15-6.75-1.6-5.79-8.48,2.18-17.76,4.59-26.43,2-7.64-2.26-13.23-8.73-16.2-15.93a52.93,52.93,0,0,1-3.37-13.23,73,73,0,0,1-.67-13.21,28.81,28.81,0,0,1,2.86-12,24.69,24.69,0,0,1,7.53-8.53c14.57-10.5,34.21-11.14,51.36-9,19.49,2.45,38.16,9.15,57.53,12.3,9.48,1.54,19.63,2.6,28.44-2.08,7.16-3.8,12.38-10.8,14.78-18.45,5.31-16.93-2.11-37.23-16-47.9-14.71-11.34-35.39-9.9-52.46-5.83-17.41,4.15-33.81,11.65-51.15,16A107.41,107.41,0,0,1,592,686.1a29.4,29.4,0,0,1-11.08-.28,11.1,11.1,0,0,1-7.62-6.58,35.24,35.24,0,0,1-2.38-12.81,33.48,33.48,0,0,1,8.27-23.29c5.76-6.64,13.29-11.25,21.16-15,4.06-1.94,8.23-3.65,12.39-5.36a3.1,3.1,0,0,0,2.1-3.69c-.39-1.42-2.18-2.71-3.69-2.1Z" transform="translate(-338.68 -57.11)" style="fill:#404041"/><circle cx="239.51" cy="759.71" r="37.92" style="fill:#fff"/><circle cx="239.51" cy="759.71" r="15.09" style="fill:#929497"/><path d="M1377.59,430.14c0,86.81-62.71,157.19-140.08,157.19S1097.42,517,1097.42,430.14c0-10.59-.65-33.29,12.76-42,22.37-14.5,58.16,26.23,95.63,10.57,14.37-6,18.82-16.05,33.26-15.65,15.75.43,19.2,12.6,34.41,19,34.77,14.62,69.31-27,91.23-13.42C1378.19,397,1377.59,420.25,1377.59,430.14Z" transform="translate(-338.68 -57.11)" style="fill:#6acbe5;stroke:#1b75bb;stroke-miterlimit:10;stroke-width:3px"/><path d="M1182.37,444.37c18.27-26.21,45.17-43.45,75.49-51.1-5-4.15-9.85-7.62-18.15-7.85-14.35-.39-18.77,9.49-33,15.39-37.23,15.4-72.79-24.64-95-10.39C1098.34,399,1099,421.28,1099,431.7c0,57.34,28.14,107.39,69.93,134C1154,524.92,1157.43,480.16,1182.37,444.37Z" transform="translate(-338.68 -57.11)" style="fill:#b8e2e9"/><path d="M1163.8,408.79a55.3,55.3,0,0,1-24.63-2.33,81.2,81.2,0,0,1-11.43-5c-3.09-1.58-7-4.55-10.38-2-2.77,2.06-3.35,5.82-3.9,9a117.29,117.29,0,0,0-1.48,12.39,118.63,118.63,0,0,0,1,24.63,115.4,115.4,0,0,0,7.3,27,1.94,1.94,0,0,0,2.3,1.31,1.88,1.88,0,0,0,1.31-2.31,114.27,114.27,0,0,1-7.41-58c.26-1.94.58-3.87.94-5.8a12.27,12.27,0,0,1,1.4-4.31,1.9,1.9,0,0,1,2.78-.81c1.81.83,3.54,1.84,5.31,2.73a82.7,82.7,0,0,0,11.28,4.87,59.5,59.5,0,0,0,26.63,2.32,1.88,1.88,0,0,0,1.31-2.3,1.94,1.94,0,0,0-2.31-1.31Z" transform="translate(-338.68 -57.11)" style="fill:#00b5f0"/><path d="M1352.2,402c3.17,5.57,4.6,11.91,5.17,18.24a97.53,97.53,0,0,1-.17,18.56,113.31,113.31,0,0,1-9.68,35c-10.16,22.42-26.61,41.2-45.71,56.5a259.23,259.23,0,0,1-34,22.78c-2.1,1.19-.21,4.43,1.89,3.23,21.75-12.37,42.42-27.32,58.86-46.33s28.55-42.25,32-67.34a101.35,101.35,0,0,0,.72-21.32c-.56-7.38-2.08-14.75-5.77-21.24-1.19-2.1-4.44-.21-3.24,1.89Z" transform="translate(-338.68 -57.11)" style="fill:#00b5f0"/><rect x="928.31" y="656.86" width="31.64" height="89.15" rx="3.88" style="fill:#44beee"/><rect x="933.5" y="652.37" width="21.25" height="4.49" rx="1.61" style="fill:#4a98d3"/><rect x="934.39" y="750.18" width="19.4" height="18.17" rx="0.82" style="fill:#00476b"/><rect x="925.07" y="745.87" width="38.04" height="4.48" rx="2.24" style="fill:#00476b"/><rect x="948.46" y="669.34" width="6.51" height="0.75" rx="0.27" style="fill:#0e1133"/><rect x="948.46" y="673.26" width="6.51" height="0.75" rx="0.27" style="fill:#0e1133"/><rect x="948.46" y="677.17" width="6.51" height="0.75" rx="0.27" style="fill:#0e1133"/><rect x="948.46" y="681.09" width="6.51" height="0.75" rx="0.27" style="fill:#0e1133"/><rect x="948.46" y="685" width="6.51" height="0.75" rx="0.27" style="fill:#0e1133"/><rect x="948.46" y="688.92" width="6.51" height="0.75" rx="0.27" style="fill:#0e1133"/><rect x="948.46" y="692.83" width="6.51" height="0.75" rx="0.27" style="fill:#0e1133"/><rect x="948.46" y="696.75" width="6.51" height="0.75" rx="0.27" style="fill:#0e1133"/><rect x="932.15" y="791.02" width="23.96" height="4.23" rx="1.52" style="fill:#8998a3"/><rect x="937.5" y="795.15" width="13.26" height="4.63" rx="1.46" style="fill:#8998a3"/><rect x="939.97" y="768.45" width="8.32" height="22.63" style="fill:#5ebfed"/><rect x="1271.79" y="695.18" width="22.02" height="6.89" rx="0.88" transform="translate(1642.75 -641.28) rotate(90)" style="fill:#d5eefa"/><path d="M1272,676.2h21.77a0,0,0,0,1,0,0v.69a0,0,0,0,1,0,0H1272a.25.25,0,0,1-.25-.25v-.19A.25.25,0,0,1,1272,676.2Z" transform="translate(1620.67 -663.36) rotate(90)" style="fill:#0a1429"/><path d="M1270.57,747.87h-1a.23.23,0,0,1-.19-.25V724.05c0-3.88,2.41-7,5.39-7h0c.1,0,.19.12.19.25v1.35a.23.23,0,0,1-.19.25h0c-2.2,0-4,2.32-4,5.18v23.57A.23.23,0,0,1,1270.57,747.87Z" transform="translate(-338.68 -57.11)" style="fill:#bee5eb"/><path d="M1431.67,583.69a106.66,106.66,0,0,1,12.21,21.66l-3-7.17a126.22,126.22,0,0,1,8.43,31.42l-1.07-8a158.36,158.36,0,0,1-.26,41.72l1.07-8a232.92,232.92,0,0,1-16.48,59.18l3-7.17a180.66,180.66,0,0,1-22.91,39.86l4.69-6.07a168.31,168.31,0,0,1-30.16,29.77l6.08-4.69A212.39,212.39,0,0,1,1347,793.44l7.17-3a139.46,139.46,0,0,1-34.94,10l8-1.07a103.71,103.71,0,0,1-20.08.77,30.85,30.85,0,0,0-30,30l1.07,8a30,30,0,0,0,7.72,13.24L1292,856a30,30,0,0,0,15.14,4.1,101.06,101.06,0,0,0,18-.51,174.47,174.47,0,0,0,25.27-4.44,148.44,148.44,0,0,0,17.08-5.77c7.94-3.2,15.8-6.58,23.4-10.53a220.69,220.69,0,0,0,29.47-18.35c11.11-8.22,21.84-16.92,31.2-27.12A220,220,0,0,0,1467,774.22a165.28,165.28,0,0,0,9.48-14.53,250.36,250.36,0,0,0,17.67-38.5A245.75,245.75,0,0,0,1504.36,686c1.84-8.78,3.09-17.7,4.08-26.61a167.62,167.62,0,0,0,1-18.74,143.57,143.57,0,0,0-1.1-17.71,192.34,192.34,0,0,0-4.21-24.46,121,121,0,0,0-5.47-16.27c-3.12-7.49-6.26-14.87-10.51-21.8-1.47-2.41-3-4.75-4.72-7a30.92,30.92,0,0,0-41-10.77l-6.08,4.69a30,30,0,0,0-7.71,13.24l-1.07,8a29.84,29.84,0,0,0,4.09,15.14Z" transform="translate(-338.68 -57.11)" style="fill:#45a09f"/></svg>