<svg id="Layer_1" data-name="Layer 1" xmlns="http://www.w3.org/2000/svg" viewBox="0 0 55.99 56.11"><path d="M45,43.5" transform="translate(-0.23 -0.24)" style="fill:#fff;stroke:#1b75bb;stroke-miterlimit:10;stroke-width:2px"/><ellipse cx="27.99" cy="28.06" rx="27.99" ry="28.06" style="fill:#22b573"/><path d="M32,41.35C39.24,25,30.67,8.21,28.25.24A28.07,28.07,0,0,0,21,55.38C24.06,52.52,28.84,48.37,32,41.35Z" transform="translate(-0.23 -0.24)" style="fill:#0affb6"/><circle cx="39.34" cy="17.81" r="7.84" style="fill:#fff"/><path d="M38.35,10.45a4.7,4.7,0,0,0-1.4.21l-4.57,8.61a8.29,8.29,0,0,0,1.76,4.19l6.59-12.41A5.12,5.12,0,0,0,38.35,10.45Z" transform="translate(-0.23 -0.24)" style="fill:#e1f3fc"/><circle cx="39.39" cy="18.01" r="7.84" style="fill:none;stroke:#231f20;stroke-miterlimit:10"/><circle cx="17.22" cy="17.81" r="7.84" style="fill:#fff"/><path d="M16.23,10.45a4.7,4.7,0,0,0-1.4.21l-4.57,8.61A8.29,8.29,0,0,0,12,23.46l6.59-12.41A5.12,5.12,0,0,0,16.23,10.45Z" transform="translate(-0.23 -0.24)" style="fill:#e1f3fc"/><circle cx="17.27" cy="18.01" r="7.84" style="fill:none;stroke:#231f20;stroke-miterlimit:10"/><rect x="25.13" y="17.49" width="6.38" height="0.84" style="fill:#231f20"/><g id="Page-1"><g id="_022---Surgical-Mask" data-name="022---Surgical-Mask"><g id="Icons"><path id="Shape" d="M41.36,32.3v1.25H38.85a10.54,10.54,0,0,1-8.1-4.09,2.48,2.48,0,0,0-1.94-.92,2.51,2.51,0,0,0-1.94.92,10.49,10.49,0,0,1-8.09,4.09H16.27V32.3A1.27,1.27,0,0,1,17.53,31h.94a8.39,8.39,0,0,0,6.46-3.16,5,5,0,0,1,7.77,0A8.39,8.39,0,0,0,39.16,31h.94A1.28,1.28,0,0,1,41.36,32.3Z" transform="translate(-0.23 -0.24)" style="fill:#3f51b4"/><path id="Shape-2" data-name="Shape" d="M40.1,31h-.94a8.39,8.39,0,0,1-6.46-3.16,5,5,0,0,0-4.83-1.76h0a5,5,0,0,1,2.95,1.76A8.38,8.38,0,0,0,37.27,31h.95a1.28,1.28,0,0,1,1.26,1.26v1.25h1.88V32.3A1.28,1.28,0,0,0,40.1,31Z" transform="translate(-0.23 -0.24)" style="fill:#283592"/><path id="Shape-3" data-name="Shape" d="M41.36,33.55h0V39.2A13.11,13.11,0,0,1,29.79,52.31a8,8,0,0,1-1.95,0A13.11,13.11,0,0,1,16.27,39.2V33.55h2.51a10.49,10.49,0,0,0,8.09-4.09,2.51,2.51,0,0,1,1.94-.92,2.48,2.48,0,0,1,1.94.92,10.54,10.54,0,0,0,8.1,4.09Z" transform="translate(-0.23 -0.24)" style="fill:#02a8f3"/><path id="Shape-4" data-name="Shape" d="M38.85,33.55a10.54,10.54,0,0,1-8.1-4.09,2.46,2.46,0,0,0-2.88-.73h0a2.34,2.34,0,0,1,1,.73A10.54,10.54,0,0,0,37,33.55h2.51V39.2A13.11,13.11,0,0,1,27.9,52.31h0a8.8,8.8,0,0,0,1.92,0A13.11,13.11,0,0,0,41.36,39.2V33.55H38.85Z" transform="translate(-0.23 -0.24)" style="fill:#0377bb"/></g><g id="Icons_copy" data-name="Icons copy"><path id="Shape-5" data-name="Shape" d="M20.47,41.05a27.81,27.81,0,0,0,16.68,0,.63.63,0,0,0,.43-.46.62.62,0,0,0-.19-.6.64.64,0,0,0-.61-.14,26.56,26.56,0,0,1-15.93,0,.63.63,0,1,0-.37,1.2Z" transform="translate(-0.23 -0.24)"/><path id="Shape-6" data-name="Shape" d="M20.57,37.31a54,54,0,0,0,8.24.63,54.18,54.18,0,0,0,8.25-.63.62.62,0,0,0,.5-.39.65.65,0,0,0-.1-.63.63.63,0,0,0-.59-.22,53.06,53.06,0,0,1-16.11,0,.62.62,0,0,0-.71.52A.64.64,0,0,0,20.57,37.31Z" transform="translate(-0.23 -0.24)"/><path id="Shape-7" data-name="Shape" d="M36.7,44.28a18,18,0,0,1-15.77,0,.61.61,0,0,0-.65,0,.64.64,0,0,0-.28.59.62.62,0,0,0,.39.52,19.24,19.24,0,0,0,16.85,0,.66.66,0,0,0,.39-.52.64.64,0,0,0-.28-.59.61.61,0,0,0-.65,0Z" transform="translate(-0.23 -0.24)"/><path id="Shape-8" data-name="Shape" d="M45.12,31.67H41.87a1.88,1.88,0,0,0-1.77-1.25h-.94a7.74,7.74,0,0,1-6-2.94,5.64,5.64,0,0,0-8.75,0,7.74,7.74,0,0,1-6,2.94h-.94a1.88,1.88,0,0,0-1.77,1.25H12.51A2.51,2.51,0,0,0,10,34.18v3.14c0,3.29,2.95,6.33,6.53,6.82h0a13.55,13.55,0,0,0,11.25,8.8,10.23,10.23,0,0,0,2.07,0,13.52,13.52,0,0,0,11.24-8.8h0c3.59-.49,6.54-3.53,6.54-6.82V34.18A2.51,2.51,0,0,0,45.12,31.67Zm-27.59,0h.94a9,9,0,0,0,6.94-3.4,4.39,4.39,0,0,1,6.81,0,9,9,0,0,0,6.94,3.4h.94a.63.63,0,0,1,.63.63v.63H38.84a9.9,9.9,0,0,1-7.6-3.86,3.13,3.13,0,0,0-4.86,0,9.92,9.92,0,0,1-7.59,3.85H16.9V32.3a.63.63,0,0,1,.63-.63Zm-6.27,5.65V34.18a1.25,1.25,0,0,1,1.25-1.25h3.14V39.2a14.09,14.09,0,0,0,.46,3.59h0C13.62,42.19,11.26,40.06,11.26,37.32ZM29.72,51.69a7.83,7.83,0,0,1-1.81,0A12.28,12.28,0,0,1,17.6,43.37h0a12.85,12.85,0,0,1-.7-4.17v-5h1.88a11.14,11.14,0,0,0,8.58-4.32,1.86,1.86,0,0,1,2.91,0,11.18,11.18,0,0,0,8.56,4.32h1.9v5a12.9,12.9,0,0,1-.7,4.17h0a12.28,12.28,0,0,1-10.31,8.32ZM46.37,37.32c0,2.74-2.36,4.87-4.85,5.47h0A14.48,14.48,0,0,0,42,39.2V32.93h3.14a1.25,1.25,0,0,1,1.25,1.25Z" transform="translate(-0.23 -0.24)"/></g></g></g></svg>